# xmcd
#
# Track frame offsets:
#	150
#	26134
#	47684
#	75634
#	93313
#	117348
#	138080
#	155300
#	184552
#	207458
#	233019
#	248623
#	273665
#
# Disc length: 3928 seconds
#
# Revision: 0
# Processed by: cddbd v1.5.2PL0 Copyright (c) Steve Scherf et al.
# Submitted via: EasyCDDAExtractor 2010.6.0.0
#
DISCID=a50f560d
DTITLE=Various Artist - Chilled Dubstep and Bass Cd 2
DYEAR=1900
DGENRE=
TTITLE0=Joy Orbison - The Shrew Would Have Cushioned The Blow
TTITLE1=Sepalcure - Fleur
TTITLE2=Lewis B - Dark Clouds
TTITLE3=Dxtr and Coco - Love You So
TTITLE4=Bukkha - Black Angels
TTITLE5=Evolve Or Die - Hail To The King
TTITLE6=Al-Pha-X - Floating In My Time Machine
TTITLE7=Luthor - Mgrow (Bakir Remix)
TTITLE8=Bledbox - Nothing
TTITLE9=Lucidity Lo Fi - Sub Matter Exploration
TTITLE10=The Resistance - New Beginnings
TTITLE11=Percept - Solis
TTITLE12=Xi - Light Fm
EXTD=
EXTT0=
EXTT1=
EXTT2=
EXTT3=
EXTT4=
EXTT5=
EXTT6=
EXTT7=
EXTT8=
EXTT9=
EXTT10=
EXTT11=
EXTT12=
PLAYORDER=
